<svg width="15" height="15" viewBox="0 0 15 15" fill="none" xmlns="http://www.w3.org/2000/svg">
<g clip-path="url(#clip0)">
<path d="M14.2107 10.7746L12.257 8.82085C11.5592 8.12308 10.373 8.40222 10.0939 9.30928C9.88456 9.9373 9.1868 10.2862 8.55881 10.1466C7.16328 9.79772 5.27931 7.98353 4.93043 6.51822C4.7211 5.89021 5.13976 5.19244 5.76775 4.98314C6.67484 4.70403 6.95395 3.51783 6.25618 2.82007L4.30244 0.866327C3.74423 0.377891 2.90691 0.377891 2.41848 0.866327L1.09272 2.19208C-0.233031 3.58761 1.23228 7.28576 4.51177 10.5653C7.79127 13.8448 11.4894 15.3799 12.885 13.9843L14.2107 12.6586C14.6992 12.1003 14.6992 11.263 14.2107 10.7746Z" fill="#48A3B7"/>
</g>
<defs>
<clipPath id="clip0">
<rect width="14" height="14" fill="white" transform="translate(0.591797 0.5)"/>
</clipPath>
</defs>
</svg>
